FILE "2023-06-08.wav" WAVE
  TRACK 01 AUDIO
    TITLE "help_urself 2"
    PERFORMER "Ezekiel Siiickbrain"
    INDEX 01 00:00:00
  TRACK 02 AUDIO
    TITLE "All Over You"
    PERFORMER "The Upbeats"
    INDEX 01 02:02:43
  TRACK 03 AUDIO
    TITLE "Hold Me Close"
    PERFORMER "Fourward"
    INDEX 01 02:49:54
